<?xml version="1.0" encoding="utf-8"?>
<svg height="24px" style="fill-rule:nonzero;clip-rule:evenodd;stroke-linecap:round;stroke-linejoin:round" width="24px" xmlns="http://www.w3.org/2000/svg" xmlns:bx="https://boxy-svg.com">
  <defs>
    <bx:grid x="0" y="0" width="64.154" height="46.582"/>
  </defs>
  <path d="M 24 6.913 L 23.223 7.66 C 20.392 4.823 16.41 3.057 12 3.057 C 7.59 3.057 3.608 4.823 0.777 7.66 L 0 6.913 C 3.03 3.883 7.287 2 12 2 C 16.713 2 20.97 3.884 24 6.913 Z M 16.77 9.09 L 16.77 7.88 C 15.265 7.226 13.641 6.89 12 6.893 C 8.69 6.893 5.705 8.23 3.596 10.373 L 4.396 11.143 C 6.301 9.198 9.003 7.983 12 7.983 C 13.719 7.983 15.34 8.383 16.77 9.09 Z M 16.77 13.872 L 16.082 14.534 C 15.027 13.402 13.547 12.763 12 12.77 C 10.377 12.77 8.919 13.45 7.918 14.532 L 7.137 13.78 C 8.404 12.45 10.163 11.701 12 11.71 C 13.878 11.71 15.573 12.469 16.77 13.685 L 16.77 13.871 L 16.77 13.872 Z" fill-rule="evenodd" fill="#fff"/>
  <path stroke="#000" d="M 3.261 18.21 L 6.242 18.211 L 6.242 22.383 L 3.261 22.383 L 3.261 18.21 Z M 8.106 14.988 L 11.087 14.988 L 11.087 22.383 L 8.106 22.383 L 8.106 14.988 Z M 12.95 11.575 L 15.932 11.575 L 15.932 22.383 L 12.95 22.383 L 12.95 11.575 Z" stroke-linecap="butt" stroke-linejoin="miter" stroke-width=".4532"/>
  <path d="M17.702 7.5h3.4v15.13h-3.4V7.5Z"/>
</svg>