<?xml version="1.0" encoding="utf-8"?>
<svg height="24px" style="fill-rule:nonzero;clip-rule:evenodd;stroke-linecap:round;stroke-linejoin:round" width="24px" xmlns="http://www.w3.org/2000/svg" xmlns:bx="https://boxy-svg.com">
  <defs>
    <bx:grid x="0" y="0" width="64.154" height="46.582"/>
  </defs>
  <path d="M 24 6.913 L 23.223 7.66 C 20.391 4.823 16.41 3.057 11.999 3.057 C 7.589 3.057 3.608 4.823 0.776 7.66 L 0 6.913 C 3.03 3.884 7.286 2 11.999 2 C 16.713 2 20.969 3.884 24 6.913 Z M 16.77 9.09 L 16.77 7.881 C 15.315 7.246 13.7 6.893 11.999 6.893 C 8.69 6.893 5.705 8.23 3.596 10.374 L 4.396 11.144 C 6.3 9.198 9.003 7.982 12 7.982 C 13.718 7.982 15.34 8.382 16.77 9.09 Z M 16.77 13.871 L 16.082 14.533 C 15.081 13.452 13.623 12.771 11.999 12.771 C 10.376 12.771 8.918 13.452 7.917 14.533 L 7.137 13.782 C 8.338 12.509 10.072 11.71 11.999 11.71 C 13.878 11.71 15.573 12.469 16.77 13.686 L 16.77 13.871 Z M 13.686 16.839 L 13.025 17.475 C 12.778 17.196 12.41 17.02 11.999 17.02 C 11.589 17.02 11.221 17.196 10.974 17.475 L 10.313 16.839 C 10.731 16.399 11.331 16.123 11.999 16.123 C 12.668 16.123 13.268 16.399 13.686 16.839 Z" fill-rule="evenodd" fill="#ffffff" opacity="1"/>
  <path stroke="#000" d="M 3.261 18.21 L 6.242 18.211 L 6.242 22.383 L 3.261 22.383 L 3.261 18.21 Z M 8.106 14.988 L 11.087 14.988 L 11.087 22.383 L 8.106 22.383 L 8.106 14.988 Z M 12.95 11.575 L 15.932 11.575 L 15.932 22.383 L 12.95 22.383 L 12.95 11.575 Z" stroke-linecap="butt" stroke-linejoin="miter" stroke-width=".4532"/>
  <path d="M17.702 7.5h3.4v15.13h-3.4V7.5Z"/>
</svg>